<svg width="14" height="14" viewBox="0 0 14 14" fill="none" xmlns="http://www.w3.org/2000/svg">
<path d="M12.3333 0.333344H1.66659C0.933252 0.333344 0.339919 0.933344 0.339919 1.66668L0.333252 13.6667L2.99992 11H12.3333C13.0666 11 13.6666 10.4 13.6666 9.66668V1.66668C13.6666 0.933344 13.0666 0.333344 12.3333 0.333344ZM10.3333 8.33334H3.66659C3.29992 8.33334 2.99992 8.03334 2.99992 7.66668C2.99992 7.30001 3.29992 7.00001 3.66659 7.00001H10.3333C10.6999 7.00001 10.9999 7.30001 10.9999 7.66668C10.9999 8.03334 10.6999 8.33334 10.3333 8.33334ZM10.3333 6.33334H3.66659C3.29992 6.33334 2.99992 6.03334 2.99992 5.66668C2.99992 5.30001 3.29992 5.00001 3.66659 5.00001H10.3333C10.6999 5.00001 10.9999 5.30001 10.9999 5.66668C10.9999 6.03334 10.6999 6.33334 10.3333 6.33334ZM10.3333 4.33334H3.66659C3.29992 4.33334 2.99992 4.03334 2.99992 3.66668C2.99992 3.30001 3.29992 3.00001 3.66659 3.00001H10.3333C10.6999 3.00001 10.9999 3.30001 10.9999 3.66668C10.9999 4.03334 10.6999 4.33334 10.3333 4.33334Z" fill="white"/>
</svg>
