<svg width="24" height="24" viewBox="0 0 24 24" fill="none" xmlns="http://www.w3.org/2000/svg">
<path d="M21.0376 16.075L17.8626 15.7125C17.1001 15.625 16.3501 15.8875 15.8126 16.425L13.5126 18.725C9.97505 16.925 7.07505 14.0375 5.27505 10.4875L7.58755 8.175C8.12505 7.6375 8.38755 6.8875 8.30005 6.125L7.93755 2.975C7.78755 1.7125 6.72505 0.762497 5.45005 0.762497H3.28755C1.87505 0.762497 0.700051 1.9375 0.787551 3.35C1.45005 14.025 9.98755 22.55 20.6501 23.2125C22.0626 23.3 23.2376 22.125 23.2376 20.7125V18.55C23.2501 17.2875 22.3001 16.225 21.0376 16.075Z" fill="#08AE2D"/>
</svg>
